<svg xmlns="http://www.w3.org/2000/svg" width="56" height="45" viewBox="0 0 56 45">
    <g fill="none" fill-rule="nonzero">
        <g fill="#436AEE">
            <path d="M10.158 8.414l-6.903 3.59v4.288l6.903-3.59zM27.91 7L14.893.176v33.477l13.019 6.93V7zm-1.873 25.118a.675.675 0 0 1-.66.69.677.677 0 0 1-.318-.08l-7.74-4.076a.678.678 0 0 1-.356-.611v-6.814a.675.675 0 0 1 .317-.591.659.659 0 0 1 .66-.02l7.741 4.077c.224.121.361.357.356.611v6.814zm-.052-13.306a.69.69 0 0 1-.933.29l-7.747-4.078a.69.69 0 0 1 .643-1.222l7.747 4.078a.69.69 0 0 1 .29.932zm0-5.84a.69.69 0 0 1-.933.29l-7.747-4.078a.69.69 0 1 1 .643-1.222l7.747 4.077a.69.69 0 0 1 .29.933z"/>
            <path d="M18.344 27.624l6.312 3.35v-5.253l-6.312-3.35zM13.511.17L0 7.041v33.597l13.511-6.98V.17zM1.874 11.582a.663.663 0 0 1 .346-.614l8.347-4.298a.662.662 0 0 1 .972.614v5.84a.668.668 0 0 1-.35.615l-8.352 4.298a.652.652 0 0 1-.657-.025.67.67 0 0 1-.306-.59v-5.84zM43 .05L29.291 7.073v33.602L43 33.652z"/>
        </g>
        <path fill="#FED30C" d="M44.5 22C38.149 22 33 27.149 33 33.5S38.149 45 44.5 45 56 39.851 56 33.5c-.007-6.348-5.152-11.493-11.5-11.5z"/>
        <path fill="#FFF" d="M39.138 34.077a.499.499 0 0 1-.138-.323c0-.092.046-.23.138-.323l.647-.646a.446.446 0 0 1 .646 0l.046.046 2.538 2.723c.093.092.231.092.323 0l6.185-6.416h.046a.446.446 0 0 1 .646 0l.647.647a.446.446 0 0 1 0 .646l-7.385 7.661a.419.419 0 0 1-.323.139.419.419 0 0 1-.323-.139l-3.6-3.877-.093-.138z"/>
    </g>
</svg>
